<svg width="20" height="20" viewBox="0 0 20 20" fill="none" xmlns="http://www.w3.org/2000/svg">
<g clip-path="url(#clip0_269_130)">
<path d="M10.8334 11.25C10.8334 11.4801 10.6468 11.6667 10.4167 11.6667H7.08337C6.85326 11.6667 6.66671 11.4801 6.66671 11.25V10.4167C6.66671 10.1866 6.85326 10 7.08337 10H10.4167C10.6468 10 10.8334 10.1866 10.8334 10.4167V11.25ZM13.3334 7.91669C13.3334 8.14681 13.1468 8.33335 12.9167 8.33335H7.08337C6.85326 8.33335 6.66671 8.14681 6.66671 7.91669V7.08335C6.66671 6.85324 6.85326 6.66669 7.08337 6.66669H12.9167C13.1468 6.66669 13.3334 6.85324 13.3334 7.08335V7.91669ZM15.8334 1.66669H4.16671C3.70647 1.66669 3.33337 2.03978 3.33337 2.50002V16.05C3.33644 16.2707 3.42276 16.482 3.57504 16.6417L5.15004 18.2084C5.22527 18.2893 5.3312 18.3347 5.44171 18.3334H5.68337C5.79388 18.3347 5.89981 18.2893 5.97504 18.2084L7.50004 16.6667C7.57697 16.5882 7.6818 16.5433 7.79171 16.5417C7.90142 16.5441 8.00594 16.5889 8.08337 16.6667L9.59171 18.175C9.66694 18.256 9.77287 18.3014 9.88337 18.3H10.125C10.2355 18.3014 10.3415 18.256 10.4167 18.175L11.9334 16.6667C12.0103 16.5882 12.1151 16.5433 12.225 16.5417C12.3289 16.5483 12.4268 16.5928 12.5 16.6667L14.0084 18.175C14.0836 18.256 14.1895 18.3014 14.3 18.3H14.5417C14.6522 18.3014 14.7581 18.256 14.8334 18.175L16.425 16.6667C16.579 16.5115 16.6658 16.302 16.6667 16.0834V2.50002C16.6667 2.03978 16.2936 1.66669 15.8334 1.66669ZM15 15.7167L14.45 16.2667L13.8334 15.6584L13.7 15.525L13.4167 15.2417C13.2615 15.0877 13.052 15.0009 12.8334 15H11.6667C11.4452 14.9987 11.2323 15.0857 11.075 15.2417L10 16.275L8.96671 15.2417C8.81149 15.0877 8.60199 15.0009 8.38337 15H7.17504C6.95642 15.0009 6.74692 15.0877 6.59171 15.2417L5.56671 16.2667L5.00004 15.7V3.33335H15V15.7167Z" fill="#DFF3E1"/>
</g>
<defs>
<clipPath id="clip0_269_130">
<rect width="20" height="20" fill="white"/>
</clipPath>
</defs>
</svg>
