<svg width="20" height="20" viewBox="0 0 20 20" fill="none" xmlns="http://www.w3.org/2000/svg">
<path fill-rule="evenodd" clip-rule="evenodd" d="M10 18.3333C14.6024 18.3333 18.3333 14.6024 18.3333 10C18.3333 5.39763 14.6024 1.66667 10 1.66667C5.39763 1.66667 1.66667 5.39763 1.66667 10C1.66667 14.6024 5.39763 18.3333 10 18.3333ZM10 20C15.5228 20 20 15.5228 20 10C20 4.47715 15.5228 0 10 0C4.47715 0 0 4.47715 0 10C0 15.5228 4.47715 20 10 20Z" fill="url(#paint0_linear_269_109)"/>
<path d="M8.33333 5C8.33333 4.53976 8.70643 4.16667 9.16667 4.16667H10.8333C11.2936 4.16667 11.6667 4.53976 11.6667 5V15C11.6667 15.4602 11.2936 15.8333 10.8333 15.8333H9.16667C8.70643 15.8333 8.33333 15.4602 8.33333 15V5Z" fill="url(#paint0_linear_269_109)"/>
<path d="M5 11.6667C4.53976 11.6667 4.16667 11.2936 4.16667 10.8333V9.16667C4.16667 8.70643 4.53976 8.33333 5 8.33333H15C15.4602 8.33333 15.8333 8.70643 15.8333 9.16667V10.8333C15.8333 11.2936 15.4602 11.6667 15 11.6667H5Z" fill="url(#paint0_linear_269_109)"/>
<defs>
<linearGradient id="paint0_linear_269_109" x1="12" y1="3" x2="12" y2="21" gradientUnits="userSpaceOnUse">
<stop stop-color="#FBB35A"/>
<stop offset="1" stop-color="#E88100"/>
</linearGradient>
<clipPath id="clip0_269_109">
<rect width="24" height="24" fill="white"/>
</clipPath>
</defs>
</svg>
